<?xml version="1.0" encoding="UTF-8" standalone="no"?>
<!-- Generator: Adobe Illustrator 19.0.0, SVG Export Plug-In . SVG Version: 6.00 Build 0)  -->

<svg
   xmlns:dc="http://purl.org/dc/elements/1.1/"
   xmlns:cc="http://creativecommons.org/ns#"
   xmlns:rdf="http://www.w3.org/1999/02/22-rdf-syntax-ns#"
   xmlns:svg="http://www.w3.org/2000/svg"
   xmlns="http://www.w3.org/2000/svg"
   xmlns:sodipodi="http://sodipodi.sourceforge.net/DTD/sodipodi-0.dtd"
   xmlns:inkscape="http://www.inkscape.org/namespaces/inkscape"
   version="1.1"
   id="Capa_1"
   x="0px"
   y="0px"
   viewBox="0 0 512.001 512.001"
   style="enable-background:new 0 0 512.001 512.001;"
   xml:space="preserve"
   sodipodi:docname="app.svg"
   inkscape:version="0.92.1 r15371"><metadata
     id="metadata65"><rdf:RDF><cc:Work
         rdf:about=""><dc:format>image/svg+xml</dc:format><dc:type
           rdf:resource="http://purl.org/dc/dcmitype/StillImage" /></cc:Work></rdf:RDF></metadata><defs
     id="defs63" /><sodipodi:namedview
     pagecolor="#ffffff"
     bordercolor="#666666"
     borderopacity="1"
     objecttolerance="10"
     gridtolerance="10"
     guidetolerance="10"
     inkscape:pageopacity="0"
     inkscape:pageshadow="2"
     inkscape:window-width="1920"
     inkscape:window-height="961"
     id="namedview61"
     showgrid="false"
     inkscape:zoom="0.23046831"
     inkscape:cx="2633.6279"
     inkscape:cy="-205.62139"
     inkscape:window-x="0"
     inkscape:window-y="35"
     inkscape:window-maximized="1"
     inkscape:current-layer="Capa_1" /><g
     id="g4526"
     transform="matrix(-1,0,0,1,512.001,0)"><path
       id="path2"
       d="m 249.432,326.662 -8.482,8.482 c -38.178,37.753 -27.786,27.361 -52.6,52.175 l -55.143,7.635 -1.697,-14.422 -6.787,-56.84 c 24.814,-24.814 14.422,-14.422 52.175,-52.6 l 8.483,-8.483 c 5.939,-5.515 15.695,-5.515 21.422,0.212 l 42.418,42.418 c 5.725,5.728 5.725,15.483 0.211,21.423 z"
       style="fill:#ffda45"
       inkscape:connector-curvature="0" /><path
       id="path4"
       d="m 249.432,326.662 -8.482,8.482 c -38.178,37.753 -27.786,27.361 -52.6,52.175 l -55.143,7.635 -1.697,-14.422 96.502,-96.501 21.209,21.209 c 5.725,5.727 5.725,15.482 0.211,21.422 z"
       style="fill:#ffbc36"
       inkscape:connector-curvature="0" /><path
       id="path6"
       d="M 512.001,179.893 C 512.001,130.264 492.065,85.3 459.403,52.638 426.741,19.976 381.777,0.04 332.149,0.04 c -99.26,0 -180.067,80.807 -180.066,180.066 -0.001,49.63 20.149,94.381 52.811,127.043 32.662,32.662 77.412,52.812 127.043,52.811 99.258,0.001 180.064,-80.807 180.064,-180.067 z"
       style="fill:#3f6199"
       inkscape:connector-curvature="0" /><path
       id="path8"
       d="M 331.936,359.959 C 282.306,359.96 237.555,339.81 204.893,307.148 L 459.403,52.639 c 32.662,32.662 52.598,77.626 52.598,127.255 0,99.259 -80.806,180.067 -180.065,180.065 z"
       style="fill:#355382"
       inkscape:connector-curvature="0" /><path
       id="path10"
       d="m 332.147,330.054 c -41.569,0 -78.896,-16.967 -106.045,-44.116 -27.149,-27.149 -44.116,-64.476 -44.116,-106.045 0,-82.716 67.232,-149.949 149.949,-149.949 41.358,0.211 78.897,16.966 106.046,44.115 27.149,27.149 43.903,64.688 44.115,106.046 -0.213,82.504 -67.445,149.737 -149.949,149.949 z"
       style="fill:#cdebfc"
       inkscape:connector-curvature="0" /><path
       id="path12"
       d="m 332.147,330.054 c -41.569,0 -78.896,-16.967 -106.045,-44.116 L 437.981,74.059 c 27.149,27.149 43.903,64.688 44.115,106.046 -0.213,82.504 -67.445,149.737 -149.949,149.949 z"
       style="fill:#bfe1ff"
       inkscape:connector-curvature="0" /><path
       id="path14"
       d="M 188.349,387.319 76.911,498.758 c -17.604,17.604 -46.023,17.604 -63.628,0 -17.604,-17.604 -17.817,-46.236 0,-63.628 L 124.722,323.691 Z"
       style="fill:#3f6199"
       inkscape:connector-curvature="0" /><path
       id="path16"
       d="M 188.349,387.319 76.911,498.758 c -17.604,17.604 -46.023,17.604 -63.628,0 L 156.535,355.506 Z"
       style="fill:#355382"
       inkscape:connector-curvature="0" /><g
       id="g22"><path
         id="path18"
         d="m 352.085,159.957 c -5.939,3.394 -12.727,5.091 -19.936,5.091 -25.028,0 -44.964,-20.361 -45.175,-45.175 0.212,-24.815 20.36,-44.963 44.963,-44.963 25.026,-10e-4 44.963,20.36 45.175,45.175 0,7.211 -1.91,14.209 -5.302,20.148 -4.032,8.696 -11.03,15.694 -19.725,19.724 z"
         style="fill:#1ea1e3"
         inkscape:connector-curvature="0" /><path
         id="path20"
         d="m 412.318,254.974 -155.251,0.001 h -5.09 c -5.515,0 -9.969,-4.454 -9.757,-9.757 l -0.211,-20.149 c -10e-4,-33.087 26.935,-60.023 60.021,-60.021 l 45.175,-0.212 14.846,-0.001 c 33.087,0.001 60.022,26.937 60.022,60.023 l -10e-4,20.361 c 10e-4,5.513 -4.24,9.755 -9.754,9.755 z"
         style="fill:#1ea1e3"
         inkscape:connector-curvature="0" /></g><g
       id="g28"><path
         id="path24"
         d="m 412.318,254.974 -155.251,0.001 90.139,-90.139 14.846,-0.001 c 33.087,0.001 60.022,26.937 60.022,60.023 l -0.001,20.361 c 0,5.513 -4.241,9.755 -9.755,9.755 z"
         style="fill:#368dcf"
         inkscape:connector-curvature="0" /><path
         id="path26"
         d="m 352.085,159.957 19.724,-19.724 c -4.031,8.696 -11.029,15.694 -19.724,19.724 z"
         style="fill:#368dcf"
         inkscape:connector-curvature="0" /></g></g><g
     id="g30" /><g
     id="g32" /><g
     id="g34" /><g
     id="g36" /><g
     id="g38" /><g
     id="g40" /><g
     id="g42" /><g
     id="g44" /><g
     id="g46" /><g
     id="g48" /><g
     id="g50" /><g
     id="g52" /><g
     id="g54" /><g
     id="g56" /><g
     id="g58" /></svg>