<?xml version="1.0" encoding="UTF-8" standalone="no"?>
<svg
   xmlns:dc="http://purl.org/dc/elements/1.1/"
   xmlns:cc="http://creativecommons.org/ns#"
   xmlns:rdf="http://www.w3.org/1999/02/22-rdf-syntax-ns#"
   xmlns:svg="http://www.w3.org/2000/svg"
   xmlns="http://www.w3.org/2000/svg"
   xmlns:sodipodi="http://sodipodi.sourceforge.net/DTD/sodipodi-0.dtd"
   xmlns:inkscape="http://www.inkscape.org/namespaces/inkscape"
   height="494pt"
   viewBox="0 -27 494.33609 494"
   width="494pt"
   version="1.1"
   id="svg22"
   sodipodi:docname="app.svg"
   inkscape:version="0.92.1 r15371">
  <metadata
     id="metadata28">
    <rdf:RDF>
      <cc:Work
         rdf:about="">
        <dc:format>image/svg+xml</dc:format>
        <dc:type
           rdf:resource="http://purl.org/dc/dcmitype/StillImage" />
      </cc:Work>
    </rdf:RDF>
  </metadata>
  <defs
     id="defs26" />
  <sodipodi:namedview
     pagecolor="#ffffff"
     bordercolor="#666666"
     borderopacity="1"
     objecttolerance="10"
     gridtolerance="10"
     guidetolerance="10"
     inkscape:pageopacity="0"
     inkscape:pageshadow="2"
     inkscape:window-width="1920"
     inkscape:window-height="961"
     id="namedview24"
     showgrid="false"
     inkscape:zoom="0.12667804"
     inkscape:cx="135.33258"
     inkscape:cy="279.48107"
     inkscape:window-x="0"
     inkscape:window-y="35"
     inkscape:window-maximized="1"
     inkscape:current-layer="svg22" />
  <path
     d="m263.742188 266.453125v-32.03125c-16.636719 18.167969-38.949219 48.054687-55.980469 53.496094l-19.890625 2.34375-19.871094-2.34375c-17.046875-5.441407-39.359375-35.328125-56-53.496094v40.039063c-48 48.25-112 35.367187-112 79.746093v48.429688h375.761719s0-22.582031 0-48.429688c0-44.378906-64.019531-39.496093-112.019531-87.753906zm0 0"
     fill="#8cc152"
     id="path2" />
  <path
     d="m248 43.277344s45.984375-5.601563 50.230469 55.359375l-.503907 16.089843c-6.292968-.167968-12.703124.238282-18.949218 1.109376l-10.800782-9.167969 4 .007812s-47.425781 15.265625-88.390624 15.28125c-40.875-.007812-71.578126-15.296875-71.578126-15.296875l-40.03125 31.824219c-16.234374-173.285156 192.023438-134.640625 192.023438-134.640625-30.488281 12.570312-16 39.433594-16 39.433594zm0 0"
     fill="#965353"
     id="path4" />
  <path
     d="m168 322.644531-56-48.183593v-40.039063l3.28125 8.6875 72.589844 47.480469zm0 0"
     fill="#a0d468"
     id="path6" />
  <path
     d="m207.761719 322.644531 55.980469-56.191406v-32.03125l-3.261719 8.6875-72.609375 47.480469zm0 0"
     fill="#e6e9ed"
     id="path8" />
  <path
     d="m303.871094 135.910156v9.488282c0 75.597656-71.832032 145.191406-116 145.191406-28.917969 0-69.871094-29.953125-94.527344-71.894532-12.9375-21.953124-21.472656-47.289062-21.472656-73.296874v-9.488282l33.832031-40.3125s39.625 19.320313 81.96875 19.320313 82.390625-19.320313 82.390625-19.320313zm0 0"
     fill="#f0c7b7"
     id="path10" />
  <path
     d="m359.351562 323.011719 16.980469-16.960938 36.09375 36.144531-16.980469 16.960938zm0 0"
     fill="#ccd1d9"
     id="path12" />
  <path
     d="m395.464844 353.476562-8.457032 8.417969 73.183594 73.175781c3.753906 3.808594 8.753906 5.910157 14.066406 5.925782 5.308594.007812 10.328126-2.0625 14.15625-5.886719l.082032-.078125c3.785156-3.792969 5.855468-8.808594 5.839844-14.128906-.015626-5.320313-2.128907-10.304688-5.902344-14.039063l-73.1875-73.1875zm0 0"
     fill="#656d78"
     id="path14" />
  <path
     d="m214.449219 308.15625c-40.625-40.558594-40.625-106.488281 0-147.046875 40.640625-40.640625 106.503906-40.632813 147.0625 0 40.625 40.558594 40.625 106.488281-.015625 147.046875-40.542969 40.640625-106.40625 40.640625-147.046875 0zm0 0"
     fill="#5d9cec"
     id="path16" />
  <path
     d="m361.496094 308.15625c40.640625-40.558594 40.640625-106.488281.015625-147.046875-40.558594-40.632813-106.421875-40.640625-147.0625 0-40.625 40.558594-40.625 106.488281 0 147.046875 40.640625 40.640625 106.503906 40.640625 147.046875 0zm11.375-158.398438c46.800781 46.871094 46.800781 122.878907 0 169.765626-10.246094 10.226562-21.933594 18.242187-34.328125 23.992187-44.40625 20.5625-98.800781 12.5625-135.4375-24-8.800781-8.804687-15.921875-18.636719-21.441407-29.046875-23.703124-45.269531-16.558593-102.640625 21.441407-140.710938 19.03125-19.046874 42.871093-30.328124 67.671875-33.929687 6.230468-.863281 12.636718-1.269531 18.949218-1.109375 30.175782.398438 60.160157 12.085938 83.144532 35.039062zm0 0"
     fill="#e6e9ed"
     id="path18" />
  <path
     d="m299.902344 147.628906c-26.292969-3.582031-53.902344 4.558594-74.140625 24.800782-17.144531 17.105468-25.722657 39.542968-25.769531 62h24.015624c.0625-22.457032 8.640626-44.894532 25.785157-62 14.09375-14.105469 31.800781-22.28125 50.109375-24.800782zm0 0"
     fill="#87bcf4"
     id="path20" />
</svg>
