<?xml version="1.0" encoding="UTF-8" standalone="no"?>
<!-- Generator: Adobe Illustrator 21.0.0, SVG Export Plug-In . SVG Version: 6.00 Build 0)  -->

<svg
   xmlns:dc="http://purl.org/dc/elements/1.1/"
   xmlns:cc="http://creativecommons.org/ns#"
   xmlns:rdf="http://www.w3.org/1999/02/22-rdf-syntax-ns#"
   xmlns:svg="http://www.w3.org/2000/svg"
   xmlns="http://www.w3.org/2000/svg"
   xmlns:sodipodi="http://sodipodi.sourceforge.net/DTD/sodipodi-0.dtd"
   xmlns:inkscape="http://www.inkscape.org/namespaces/inkscape"
   version="1.1"
   id="Capa_1"
   x="0px"
   y="0px"
   viewBox="0 0 16 16"
   xml:space="preserve"
   width="16"
   height="16"
   sodipodi:docname="app.svg"
   inkscape:version="0.92.4 (5da689c313, 2019-01-14)"
   inkscape:export-filename="C:\Users\dumitru\Downloads\app.png"
   inkscape:export-xdpi="192"
   inkscape:export-ydpi="192"><metadata
   id="metadata3773"><rdf:RDF><cc:Work
       rdf:about=""><dc:format>image/svg+xml</dc:format><dc:type
         rdf:resource="http://purl.org/dc/dcmitype/StillImage" /><dc:title></dc:title></cc:Work></rdf:RDF></metadata><defs
   id="defs3771" /><sodipodi:namedview
   pagecolor="#ffffff"
   bordercolor="#666666"
   borderopacity="1"
   objecttolerance="10"
   gridtolerance="10"
   guidetolerance="10"
   inkscape:pageopacity="0"
   inkscape:pageshadow="2"
   inkscape:window-width="1920"
   inkscape:window-height="1001"
   id="namedview3769"
   showgrid="false"
   inkscape:zoom="4.4636117"
   inkscape:cx="3.6822551"
   inkscape:cy="53.125694"
   inkscape:window-x="-9"
   inkscape:window-y="-9"
   inkscape:window-maximized="1"
   inkscape:current-layer="g21" />
<g
   id="g3766"
   transform="translate(0,-496)">
	
	
	
	
	
	
	
	<g
   id="g21"><g
     id="g30"
     transform="matrix(0.03125829,0,0,0.03125013,-0.00211891,495.99994)"><path
       style="fill:#204a87"
       d="m 109.64,368.919 31.472,31.472 38.265,-4.085 43.79,-44.026 c 5.83,-5.859 5.815,-15.337 -0.029,-21.182 l -42.305,-42.305 c -5.845,-5.83 -15.308,-5.859 -21.182,-0.029 l -44.03,43.793 z"
       id="path3744"
       inkscape:connector-curvature="0" /><path
       style="fill:#0083d7"
       d="m 316.932,0 c -107.401,0 -195,87.599 -195,195 0,107.399 87.599,195 195,195 107.401,0 195,-87.601 195,-195 0,-107.401 -87.599,-195 -195,-195 z"
       id="path3746"
       inkscape:connector-curvature="0" /><path
       style="fill:#deffff"
       d="m 481.932,195 c 0,90.899 -74.099,165 -165,165 -90.901,0 -165,-74.101 -165,-165 0,-90.901 74.099,-165 165,-165 90.901,0 165,74.099 165,165 z"
       id="path3750"
       inkscape:connector-curvature="0" /><g
       id="g3756"
       style="fill:#0066cc">
		<path
   style="fill:#0066cc"
   d="M 45.132,512 C 33.457,512 22.222,507.444 13.506,499.183 -4.365,481.312 -4.365,452.689 13.228,435.096 L 115.633,332.49 179.442,396.299 77.036,498.904 C 68.042,507.444 56.807,512 45.132,512 Z"
   id="path3754"
   inkscape:connector-curvature="0" />
	</g><path
       style="fill:#ff3300"
       d="m 316.932,90 c -24.901,0 -45,20.099 -45,45 0,24.899 20.099,45 45,45 24.901,0 45,-20.101 45,-45 0,-24.901 -20.099,-45 -45,-45 z"
       id="path3758"
       inkscape:connector-curvature="0" /><path
       style="fill:#ff3300"
       d="m 316.932,180 c -41.4,0 -75,33.6 -75,75 v 30 c 0,8.399 6.599,15 15,15 h 120 c 8.401,0 15,-6.601 15,-15 v -30 c 0,-41.4 -33.6,-75 -75,-75 z"
       id="path3760"
       inkscape:connector-curvature="0" /></g></g>
	
	
</g>















</svg>