<?xml version="1.0" encoding="UTF-8" standalone="no"?>
<svg
   xmlns:dc="http://purl.org/dc/elements/1.1/"
   xmlns:cc="http://creativecommons.org/ns#"
   xmlns:rdf="http://www.w3.org/1999/02/22-rdf-syntax-ns#"
   xmlns:svg="http://www.w3.org/2000/svg"
   xmlns="http://www.w3.org/2000/svg"
   xmlns:sodipodi="http://sodipodi.sourceforge.net/DTD/sodipodi-0.dtd"
   xmlns:inkscape="http://www.inkscape.org/namespaces/inkscape"
   height="512pt"
   viewBox="0 0 512 512.00038"
   width="512pt"
   version="1.1"
   id="svg38"
   sodipodi:docname="app.svg"
   inkscape:version="0.92.1 r15371">
  <metadata
     id="metadata44">
    <rdf:RDF>
      <cc:Work
         rdf:about="">
        <dc:format>image/svg+xml</dc:format>
        <dc:type
           rdf:resource="http://purl.org/dc/dcmitype/StillImage" />
      </cc:Work>
    </rdf:RDF>
  </metadata>
  <defs
     id="defs42" />
  <sodipodi:namedview
     pagecolor="#ffffff"
     bordercolor="#666666"
     borderopacity="1"
     objecttolerance="10"
     gridtolerance="10"
     guidetolerance="10"
     inkscape:pageopacity="0"
     inkscape:pageshadow="2"
     inkscape:window-width="1920"
     inkscape:window-height="961"
     id="namedview40"
     showgrid="false"
     inkscape:zoom="0.061112256"
     inkscape:cx="464.0515"
     inkscape:cy="929.39053"
     inkscape:window-x="0"
     inkscape:window-y="35"
     inkscape:window-maximized="1"
     inkscape:current-layer="svg38" />
  <path
     d="m228.574219 314.066406-49.09375 49.09375c-.585938-3.65625-2.167969-7.042968-4.835938-9.707031l-15.796875-15.796875c-2.667968-2.667969-6.050781-4.25-9.707031-4.835938l49.09375-49.097656c8.585937 11.5625 18.757813 21.742188 30.339844 30.34375zm0 0"
     fill="#ccd2db"
     id="path2" />
  <path
     d="m190.964844 337.574219c-3.960938-3.90625-4.175782-10.210938-.238282-14.144531l22.503907-22.507813c-5.421875-5.328125-10.441407-11.0625-14.996094-17.199219l-49.09375 49.097656c3.65625.585938 7.042969 2.167969 9.707031 4.835938l15.796875 15.796875c2.667969 2.667969 4.25 6.050781 4.835938 9.707031l18.535156-18.53125-6.972656-6.972656c-.023438-.027344-.050781-.054688-.078125-.082031zm0 0"
     fill="#bcc2cc"
     id="path4" />
  <path
     d="m209.796875 58.109375c67.378906-67.382813 177.015625-67.382813 244.394531 0 67.378906 67.378906 67.378906 177.015625 0 244.394531s-177.015625 67.378906-244.394531 0-67.378906-177.015625 0-244.394531zm0 0"
     fill="#e4eaf8"
     id="path6" />
  <path
     d="m239.394531 302.503906c-67.382812-67.378906-67.382812-177.015625 0-244.394531 29.929688-29.933594 68.199219-46.554687 107.398438-49.894531-49.046875-4.179688-99.546875 12.445312-136.996094 49.894531-67.382813 67.378906-67.382813 177.015625 0 244.394531 37.449219 37.449219 87.949219 54.074219 136.996094 49.894532-39.199219-3.339844-77.46875-19.964844-107.398438-49.894532zm0 0"
     fill="#ccd2db"
     id="path8" />
  <path
     d="m430.886719 81.414062c-54.527344-54.53125-143.253907-54.53125-197.785157 0-54.53125 54.527344-54.53125 143.253907 0 197.785157s143.257813 54.53125 197.785157 0c54.53125-54.53125 54.53125-143.257813 0-197.785157zm0 0"
     fill="#54a0ff"
     id="path10" />
  <path
     d="m263.105469 279.199219c-54.53125-54.53125-54.53125-143.257813 0-197.785157 23.449219-23.453124 53.230469-36.808593 83.890625-40.089843-40.632813-4.34375-82.816406 9.011719-113.894532 40.089843-54.53125 54.527344-54.53125 143.253907 0 197.785157 31.078126 31.078125 73.261719 44.433593 113.894532 40.085937-30.664063-3.277344-60.441406-16.632812-83.890625-40.085937zm0 0"
     fill="#338def"
     id="path12" />
  <path
     d="m370.207031 133.921875c0 21.105469-17.109375 38.214844-38.210937 38.214844-21.105469 0-38.214844-17.109375-38.214844-38.214844 0-21.101563 17.109375-38.210937 38.214844-38.210937 21.101562 0 38.210937 17.109374 38.210937 38.210937zm0 0"
     fill="#ffcdbf"
     id="path14" />
  <path
     d="m323.785156 133.921875c0-15.777344 9.5625-29.320313 23.210938-35.152344-4.605469-1.96875-9.675782-3.058593-15.003906-3.058593-21.101563 0-38.210938 17.109374-38.210938 38.210937 0 21.105469 17.109375 38.214844 38.210938 38.214844 5.328124 0 10.398437-1.09375 15.003906-3.0625-13.648438-5.832031-23.210938-19.375-23.210938-35.152344zm0 0"
     fill="#ffbeab"
     id="path16" />
  <path
     d="m353.621094 172.136719h-43.253906c-22.515626 0-40.941407 18.421875-40.941407 40.941406v32.035156c0 3.851563 3.125 6.976563 6.976563 6.976563h111.1875c3.851562 0 6.972656-3.125 6.972656-6.976563v-32.035156c0-22.519531-18.421875-40.941406-40.941406-40.941406zm0 0"
     fill="#ff6b6b"
     id="path18" />
  <path
     d="m299.429688 245.113281v-32.035156c0-22.519531 18.421874-40.941406 40.941406-40.941406h-30.003906c-22.515626 0-40.941407 18.421875-40.941407 40.941406v32.035156c0 3.851563 3.125 6.976563 6.976563 6.976563h30c-3.851563 0-6.972656-3.125-6.972656-6.976563zm0 0"
     fill="#ee5253"
     id="path20" />
  <path
     d="m163.546875 332.957031 15.796875 15.796875c7.742188 7.738282 7.742188 20.289063 0 28.03125l-121.996094 121.992188c-7.738281 7.742187-20.289062 7.742187-28.03125 0l-15.796875-15.796875c-7.738281-7.738281-7.738281-20.289063 0-28.03125l121.996094-121.996094c7.742187-7.738281 20.292969-7.738281 28.03125.003906zm0 0"
     fill="#ff6b6b"
     id="path22" />
  <path
     d="m43.523438 482.984375c-7.738282-7.742187-7.738282-20.292969 0-28.035156l121.011718-121.007813-.988281-.988281c-7.738281-7.738281-20.289063-7.738281-28.03125.003906l-121.992187 121.992188c-7.742188 7.742187-7.742188 20.292969 0 28.035156l15.792968 15.792969c7.742188 7.742187 20.292969 7.742187 28.03125 0l.988282-.984375zm0 0"
     fill="#ee5253"
     id="path24" />
  <path
     d="m163.546875 332.957031c-7.738281-7.742187-20.289063-7.742187-28.03125 0l-14.53125 14.53125 43.828125 43.828125 14.53125-14.53125c7.742188-7.742187 7.742188-20.292968 0-28.035156zm0 0"
     fill="#ee5253"
     id="path26" />
  <path
     d="m124.617188 343.855469-3.632813 3.632812 15 15 28.550781-28.546875-.988281-.984375c-.429687-.433593-.882813-.832031-1.34375-1.21875-.191406-.15625-.390625-.304687-.585937-.457031-.582032-.449219-1.1875-.859375-1.804688-1.238281-3.152344-1.914063-6.710938-2.894531-10.28125-2.894531-.632812 0-1.265625.03125-1.898438.089843-.632812.0625-1.261718.152344-1.886718.273438-3.75.726562-7.328125 2.539062-10.230469 5.445312zm0 0"
     fill="#d83941"
     id="path28" />
  <path
     d="m23.804688 504.011719c10.664062 10.660156 27.996093 10.640625 38.640624 0l107.460938-107.464844 14.53125-14.53125c5.601562-5.601563 8.511719-13.339844 7.90625-21.390625l34.089844-34.09375c25.5 18.316406 55.59375 29.828125 87.097656 33.007812.253906.027344.507812.039063.761719.039063 3.804687 0 7.0625-2.878906 7.453125-6.746094.414062-4.121093-2.589844-7.800781-6.710938-8.214843-32.683594-3.300782-63.167968-16.351563-87.324218-35.957032-121.628907-98.363281-50.019532-293.660156 104.074218-293.660156 86.726563 0 156.039063 65.835938 164.378906 148.484375.417969 4.121094 4.101563 7.125 8.214844 6.710937 4.125-.417968 7.128906-4.09375 6.710938-8.214843-9.078125-89.960938-84.539063-161.980469-179.304688-161.980469-146.972656 0-231.894531 166.925781-146.324218 285.609375l-34.054688 34.054687c-8.171875-.613281-15.824219 2.335938-21.402344 7.917969-6.511718 6.507813-118.339844 118.339844-121.996094 121.992188-10.675781 10.679687-10.675781 27.960937 0 38.640625zm150.027343-132.605469-9.230469 9.230469-33.21875-33.21875 9.226563-9.230469c4.945313-4.945312 12.761719-4.664062 17.425781 0l15.796875 15.796875c.003907.003906.007813.011719.011719.015625 4.695312 4.710938 4.847656 12.546875-.011719 17.40625zm20.960938-73.917969c5.675781 6.621094 12.484375 13.519531 19.738281 19.734375l-28.222656 28.222656c-.582032-.714843-1.207032-1.40625-1.871094-2.070312l-15.792969-15.796875c-.664062-.660156-1.355469-1.285156-2.070312-1.867187zm-176.175781 162.695313 102.15625-102.160156 33.21875 33.222656-102.15625 102.15625c-4.800782 4.804687-12.617188 4.804687-17.421876 0l-15.800781-15.796875c-4.8125-4.816407-4.8125-12.605469.003907-17.421875zm0 0"
     id="path30" />
  <path
     d="m479.078125 180.234375c0-39.402344-15.308594-76.40625-43.097656-104.199219-57.453125-57.453125-150.9375-57.453125-208.394531 0-57.453126 57.457032-57.453126 150.941406 0 208.394532 28.730468 28.726562 66.464843 43.089843 104.199218 43.089843 80.929688 0 147.292969-65.199219 147.292969-147.285156zm-147.292969 132.292969c-33.890625-.003906-67.792968-12.90625-93.589844-38.703125-51.605468-51.605469-51.605468-135.574219 0-187.179688 25.800782-25.800781 59.695313-38.703125 93.589844-38.703125 72.699219 0 132.289063 58.5625 132.289063 132.292969 0 73.660156-59.523438 132.300781-132.289063 132.292969zm0 0"
     id="path32" />
  <path
     d="m364.402344 165.835938c8.09375-8.25 13.09375-19.542969 13.09375-31.984376 0-25.207031-20.507813-45.714843-45.710938-45.714843-25.207031 0-45.714844 20.507812-45.714844 45.714843 0 12.441407 5.003907 23.734376 13.097657 31.984376-21.433594 4.992187-37.453125 24.238281-37.453125 47.167968v32.039063c0 7.980469 6.492187 14.476562 14.476562 14.476562h111.1875c7.980469 0 14.472656-6.496093 14.472656-14.476562v-32.039063c0-22.929687-16.019531-42.175781-37.449218-47.167968zm-32.617188-62.699219c16.933594 0 30.710938 13.777343 30.710938 30.710937 0 16.9375-13.777344 30.714844-30.710938 30.714844-16.9375 0-30.710937-13.777344-30.710937-30.714844 0-16.933594 13.777343-30.710937 30.710937-30.710937zm55.066406 141.378906h-16.476562v-32.980469c0-4.140625-3.355469-7.5-7.5-7.5s-7.5 3.359375-7.5 7.5v32.980469h-47.179688v-32.980469c0-4.140625-3.359374-7.5-7.503906-7.5-4.140625 0-7.5 3.359375-7.5 7.5v32.980469h-16.476562v-31.511719c0-18.4375 15.003906-33.441406 33.441406-33.441406h43.253906c18.4375 0 33.441406 15.003906 33.441406 33.441406zm0 0"
     id="path34" />
  <path
     d="m511.089844 198.488281c.417968-4.121093-2.585938-7.800781-6.710938-8.214843-4.121094-.417969-7.796875 2.585937-8.214844 6.707031-7.863281 77.902343-69.472656 139.746093-147.632812 147.632812-4.121094.417969-7.125 4.09375-6.707031 8.21875.386719 3.863281 3.648437 6.746094 7.453125 6.746094.25 0 .503906-.011719.761718-.039063 84.980469-8.574218 152.445313-75.792968 161.050782-161.050781zm0 0"
     id="path36" />
</svg>
