<?xml version="1.0" encoding="UTF-8" standalone="no"?>
<svg
   xmlns:dc="http://purl.org/dc/elements/1.1/"
   xmlns:cc="http://creativecommons.org/ns#"
   xmlns:rdf="http://www.w3.org/1999/02/22-rdf-syntax-ns#"
   xmlns:svg="http://www.w3.org/2000/svg"
   xmlns="http://www.w3.org/2000/svg"
   xmlns:sodipodi="http://sodipodi.sourceforge.net/DTD/sodipodi-0.dtd"
   xmlns:inkscape="http://www.inkscape.org/namespaces/inkscape"
   height="511.99925pt"
   viewBox="0 1 511.99925 511.99925"
   width="511.99925pt"
   version="1.1"
   id="svg28"
   sodipodi:docname="app.svg"
   inkscape:version="0.92.1 r15371">
  <metadata
     id="metadata34">
    <rdf:RDF>
      <cc:Work
         rdf:about="">
        <dc:format>image/svg+xml</dc:format>
        <dc:type
           rdf:resource="http://purl.org/dc/dcmitype/StillImage" />
      </cc:Work>
    </rdf:RDF>
  </metadata>
  <defs
     id="defs32" />
  <sodipodi:namedview
     pagecolor="#ffffff"
     bordercolor="#666666"
     borderopacity="1"
     objecttolerance="10"
     gridtolerance="10"
     guidetolerance="10"
     inkscape:pageopacity="0"
     inkscape:pageshadow="2"
     inkscape:window-width="1920"
     inkscape:window-height="961"
     id="namedview30"
     showgrid="false"
     inkscape:zoom="0.17285182"
     inkscape:cx="2395.7243"
     inkscape:cy="637.98503"
     inkscape:window-x="0"
     inkscape:window-y="35"
     inkscape:window-maximized="1"
     inkscape:current-layer="svg28" />
  <g
     id="g4509"
     transform="matrix(-1,0,0,1,511.99902,0)">
    <path
       id="path2"
       d="m 251.5625,281.73437 -44.09375,43.79297 c -2.69922,3 -6.59766,4.5 -10.49609,4.5 -3.90235,0 -7.80079,-1.5 -10.5,-4.5 -6,-5.69922 -6,-15.29687 0,-20.99609 l 43.79296,-44.09375 c 6,-5.69922 15.29688,-5.69922 21.29688,0 5.69922,6 5.69922,15.29687 0,21.29687 z m 0,0"
       inkscape:connector-curvature="0"
       style="fill:#575f64" />
    <path
       id="path4"
       d="m 251.5625,281.73437 -44.09375,43.79297 c -2.69922,3 -6.59766,4.5 -10.49609,4.5 -3.90235,0 -7.80079,-1.5 -10.5,-4.5 L 251.5625,260.4375 c 5.69922,6 5.69922,15.29687 0,21.29687 z m 0,0"
       inkscape:connector-curvature="0"
       style="fill:#32393f" />
    <path
       id="path6"
       d="m 463.63281,48.367188 c -64.49219,-64.488282 -168.875,-64.488282 -233.36719,0 -64.48828,64.492192 -64.48828,168.875002 0,233.367182 64.49219,64.48829 168.875,64.48829 233.36719,0 64.48828,-64.49218 64.48828,-168.87499 0,-233.367182 z m 0,0"
       inkscape:connector-curvature="0"
       style="fill:#7c8388" />
    <path
       id="path8"
       d="m 463.63281,281.73437 c -64.49219,64.48829 -168.875,64.48829 -233.36719,0 L 463.63281,48.367188 c 64.48828,64.492192 64.48828,168.875002 0,233.367182 z m 0,0"
       inkscape:connector-curvature="0"
       style="fill:#575f64" />
    <path
       id="path10"
       d="m 442.33594,260.4375 c -6.30078,6.29687 -13.19922,11.99609 -20.39844,16.79687 H 271.96094 c -7.19922,-4.80078 -14.09766,-10.5 -20.39844,-16.79687 -52.79297,-52.79297 -52.79297,-137.98047 0,-190.773438 52.79297,-52.792968 137.98047,-52.792968 190.77344,0 52.79297,52.792968 52.79297,137.980468 0,190.773438 z m 0,0"
       inkscape:connector-curvature="0"
       style="fill:#f2f2fc" />
    <path
       id="path12"
       d="m 442.33594,260.4375 c -6.30078,6.29687 -13.19922,11.99609 -20.39844,16.79687 H 271.96094 c -7.19922,-4.80078 -14.09766,-10.5 -20.39844,-16.79687 L 442.33594,69.664062 c 52.79297,52.792968 52.79297,137.980468 0,190.773438 z m 0,0"
       inkscape:connector-curvature="0"
       style="fill:#d8d8fc" />
    <path
       id="path14"
       d="M 389.84375,122.15625 C 384.44531,103.55859 367.34766,90.0625 346.94922,90.0625 c -24.89844,0 -44.99219,20.09375 -44.99219,44.99219 0,20.39843 13.49609,37.49609 32.09375,42.89453 4.19922,1.5 8.39844,2.10156 12.89844,2.10156 24.89844,0 44.99219,-20.09766 44.99219,-44.99609 0,-4.5 -0.60157,-8.69922 -2.09766,-12.89844 z m 0,0"
       inkscape:connector-curvature="0"
       style="fill:#fdbf00" />
    <path
       id="path16"
       d="m 346.94922,180.05078 c -41.34766,0 -74.98828,33.64063 -74.98828,74.98828 v 22.09766 c 45.27734,30.40625 104.68359,30.42187 149.97656,0 v -22.10156 c 0,-41.34375 -33.64062,-74.98438 -74.98828,-74.98438 z m 0,0"
       inkscape:connector-curvature="0"
       style="fill:#ff9100" />
    <path
       id="path18"
       d="m 391.94141,135.05469 c 0,24.89843 -20.09375,44.99609 -44.99219,44.99609 -4.5,0 -8.69922,-0.60156 -12.89844,-2.10156 l 55.79297,-55.79297 c 1.49609,4.19922 2.09766,8.39844 2.09766,12.89844 z m 0,0"
       inkscape:connector-curvature="0"
       style="fill:#ff9100" />
    <path
       id="path20"
       d="m 228.76562,346.82422 -34.49609,34.49609 -58.48828,-5.10156 -6.90234,-0.59766 1.80078,-57.89062 34.49609,-34.49609 c 5.69922,-6 15.29688,-6 21.29688,0 l 42.29296,42.29296 c 6,6 6,15.59766 0,21.29688 z m 0,0"
       inkscape:connector-curvature="0"
       style="fill:#fdbf00" />
    <path
       id="path22"
       d="m 228.76562,325.52734 c 6,6 6,15.59766 0,21.29688 l -34.49609,34.49609 -58.48828,-5.10156 71.98828,-71.6875 z m 0,0"
       inkscape:connector-curvature="0"
       style="fill:#ff9100" />
    <path
       id="path24"
       d="M 194.26953,381.32031 68.089844,507.5 c -5.699219,6 -15.296875,6 -21.296875,0 L 25.796875,486.20312 4.5,465.20703 c -6,-6 -6,-15.59766 0,-21.29687 L 130.67969,317.73047 Z m 0,0"
       inkscape:connector-curvature="0"
       style="fill:#575f64" />
    <path
       id="path26"
       d="M 162.47656,349.52344 194.26953,381.32031 68.089844,507.5 c -5.699219,6 -15.296875,6 -21.296875,0 L 25.796875,486.20312 Z m 0,0"
       inkscape:connector-curvature="0"
       style="fill:#32393f" />
  </g>
</svg>
