<?xml version="1.0" encoding="UTF-8" standalone="no"?>
<!-- Generator: Adobe Illustrator 21.0.0, SVG Export Plug-In . SVG Version: 6.00 Build 0)  -->

<svg
   xmlns:dc="http://purl.org/dc/elements/1.1/"
   xmlns:cc="http://creativecommons.org/ns#"
   xmlns:rdf="http://www.w3.org/1999/02/22-rdf-syntax-ns#"
   xmlns:svg="http://www.w3.org/2000/svg"
   xmlns="http://www.w3.org/2000/svg"
   xmlns:sodipodi="http://sodipodi.sourceforge.net/DTD/sodipodi-0.dtd"
   xmlns:inkscape="http://www.inkscape.org/namespaces/inkscape"
   version="1.1"
   id="Capa_1"
   x="0px"
   y="0px"
   viewBox="0 0 512 512"
   style="enable-background:new 0 0 512 512;"
   xml:space="preserve"
   width="512"
   height="512"
   sodipodi:docname="app.svg"
   inkscape:version="0.92.1 r15371"><metadata
     id="metadata43"><rdf:RDF><cc:Work
         rdf:about=""><dc:format>image/svg+xml</dc:format><dc:type
           rdf:resource="http://purl.org/dc/dcmitype/StillImage" /></cc:Work></rdf:RDF></metadata><defs
     id="defs41" /><sodipodi:namedview
     pagecolor="#ffffff"
     bordercolor="#666666"
     borderopacity="1"
     objecttolerance="10"
     gridtolerance="10"
     guidetolerance="10"
     inkscape:pageopacity="0"
     inkscape:pageshadow="2"
     inkscape:window-width="1920"
     inkscape:window-height="961"
     id="namedview39"
     showgrid="false"
     inkscape:zoom="0.23046875"
     inkscape:cx="2514.1605"
     inkscape:cy="121.84638"
     inkscape:window-x="0"
     inkscape:window-y="35"
     inkscape:window-maximized="1"
     inkscape:current-layer="Capa_1" /><g
     id="g36"><path
       style="fill:#CCD2DB;"
       d="M227.521,315.737l-50.575,50.575c-0.604-3.768-2.236-7.255-4.983-10.002l-16.272-16.272   c-2.747-2.747-6.234-4.378-10.002-4.983l50.575-50.575C205.108,296.391,215.588,306.877,227.521,315.737z"
       id="path2" /><path
       style="fill:#BCC2CC;"
       d="M188.775,339.955c-4.081-4.027-4.302-10.519-0.247-14.573l23.186-23.186   c-5.588-5.489-10.756-11.395-15.45-17.717l-50.574,50.575c3.768,0.605,7.255,2.236,10.002,4.983l16.272,16.272   c2.747,2.747,4.379,6.234,4.983,10.002l19.093-19.093l-7.181-7.181C188.831,340.01,188.803,339.982,188.775,339.955z"
       id="path4" /><path
       style="fill:#E4EAF8;"
       d="M208.175,52.059c69.412-69.412,182.354-69.412,251.767,0c69.412,69.412,69.412,182.354,0,251.766   s-182.354,69.412-251.766,0C138.762,234.413,138.762,121.471,208.175,52.059z"
       id="path6" /><path
       style="fill:#CCD2DB;"
       d="M238.664,303.826c-69.412-69.412-69.412-182.354,0-251.766   c30.833-30.834,70.257-47.958,110.639-51.399c-50.525-4.305-102.549,12.82-141.128,51.399c-69.412,69.412-69.412,182.354,0,251.766   c38.579,38.579,90.603,55.703,141.128,51.399C308.921,351.784,269.497,334.659,238.664,303.826z"
       id="path8" /><path
       style="fill:#54A0FF;"
       d="M435.933,76.067c-56.174-56.174-147.577-56.174-203.751,0c-56.174,56.174-56.174,147.577,0,203.751   c56.174,56.174,147.576,56.174,203.751,0S492.108,132.241,435.933,76.067z"
       id="path10" /><path
       style="fill:#338DEF;"
       d="M263.09,279.818c-56.174-56.175-56.174-147.577,0-203.751   c24.159-24.159,54.835-37.918,86.422-41.297c-41.858-4.477-85.314,9.282-117.329,41.297c-56.174,56.174-56.174,147.576,0,203.751   c32.015,32.015,75.472,45.773,117.329,41.296C317.925,317.736,287.249,303.977,263.09,279.818z"
       id="path12" /><circle
       style="fill:#FFCDBF;"
       cx="334.058"
       cy="130.16"
       r="39.365"
       id="circle14" /><path
       style="fill:#FFBEAB;"
       d="M325.6,130.16c0-16.254,9.853-30.205,23.911-36.212c-4.745-2.028-9.967-3.153-15.454-3.153   c-21.741,0-39.365,17.624-39.365,39.365c0,21.741,17.624,39.365,39.365,39.365c5.486,0,10.709-1.125,15.454-3.153   C335.453,160.365,325.6,146.415,325.6,130.16z"
       id="path16" /><path
       style="fill:#FF6B6B;"
       d="M356.336,169.525H311.78c-23.197,0-42.177,18.98-42.177,42.177v33.004   c0,3.968,3.217,7.184,7.184,7.184h114.541c3.968,0,7.184-3.217,7.184-7.184v-33.004   C398.513,188.504,379.533,169.525,356.336,169.525z"
       id="path18" /><path
       style="fill:#EE5253;"
       d="M300.51,244.705v-33.004c0-23.197,18.98-42.177,42.177-42.177H311.78   c-23.198,0-42.177,18.98-42.177,42.177v33.004c0,3.968,3.216,7.184,7.185,7.184h30.907   C303.727,251.89,300.51,248.673,300.51,244.705z"
       id="path20" /><g
       id="g26"><path
         style="fill:#EE5253;"
         d="M309.757,251.89v-41.702c0-4.267-3.459-7.727-7.727-7.727s-7.727,3.459-7.727,7.727v41.702H309.757    z"
         id="path22" /><path
         style="fill:#EE5253;"
         d="M373.813,251.89v-41.702c0-4.267-3.459-7.727-7.727-7.727c-4.267,0-7.727,3.459-7.727,7.727v41.702    H373.813z"
         id="path24" /></g><path
       style="fill:#FF6B6B;"
       d="M160.532,335.195l16.272,16.272c7.975,7.975,7.975,20.903,0,28.878L51.13,506.02   c-7.974,7.974-20.903,7.974-28.877-0.001L5.981,489.747c-7.974-7.974-7.974-20.903,0-28.877l125.674-125.674   C139.629,327.221,152.558,327.221,160.532,335.195z"
       id="path28" /><path
       style="fill:#EE5253;"
       d="M36.888,489.747c-7.974-7.974-7.974-20.902,0-28.877l124.659-124.659l-1.015-1.015   c-7.974-7.974-20.903-7.974-28.877,0.001L5.981,460.87c-7.974,7.974-7.974,20.903,0,28.877l16.272,16.273   c7.975,7.975,20.903,7.975,28.877,0.001l1.015-1.015L36.888,489.747z"
       id="path30" /><path
       style="fill:#EE5253;"
       d="M160.532,335.196c-7.974-7.974-20.903-7.974-28.877,0.001l-14.971,14.971l45.15,45.15l14.971-14.971   c7.975-7.975,7.975-20.903,0-28.878L160.532,335.196z"
       id="path32" /><path
       style="fill:#D83941;"
       d="M120.427,346.424l-3.743,3.743l15.454,15.453l29.41-29.41l-1.015-1.015   c-0.445-0.445-0.911-0.857-1.386-1.253c-0.197-0.164-0.401-0.315-0.602-0.471c-0.601-0.464-1.223-0.887-1.861-1.275   c-3.245-1.973-6.913-2.982-10.589-2.982c-0.653,0-1.307,0.031-1.957,0.094s-1.299,0.156-1.943,0.28   c-3.861,0.748-7.549,2.617-10.539,5.607L120.427,346.424z"
       id="path34" /></g></svg>